<svg width="20" height="20" viewBox="0 0 20 20" fill="none" xmlns="http://www.w3.org/2000/svg">
<g clip-path="url(#clip0_2_308)">
<path d="M1.25 3.53497C2.35625 3.07247 3.9425 2.57372 5.485 2.41872C7.1475 2.25122 8.5575 2.49747 9.375 3.35872V15.5412C8.20625 14.8787 6.725 14.7875 5.35875 14.925C3.88375 15.075 2.39625 15.5012 1.25 15.9387V3.53497ZM10.625 3.35872C11.4425 2.49747 12.8525 2.25122 14.515 2.41872C16.0575 2.57372 17.6437 3.07247 18.75 3.53497V15.9387C17.6025 15.5012 16.1163 15.0737 14.6413 14.9262C13.2738 14.7875 11.7937 14.8775 10.625 15.5412V3.35872ZM10 2.22872C8.76875 1.16997 6.98375 1.01247 5.35875 1.17497C3.46625 1.36622 1.55625 2.01497 0.36625 2.55622C0.257061 2.60588 0.164469 2.68591 0.0995263 2.78676C0.0345834 2.88761 3.32143e-05 3.00502 0 3.12497L0 16.875C2.89525e-05 16.9795 0.0262964 17.0824 0.0763964 17.1742C0.126496 17.266 0.198827 17.3438 0.286764 17.4004C0.3747 17.457 0.475431 17.4906 0.579729 17.4982C0.684028 17.5057 0.788559 17.487 0.88375 17.4437C1.98625 16.9437 3.7625 16.3425 5.48375 16.1687C7.245 15.9912 8.72125 16.2775 9.5125 17.265C9.57106 17.338 9.64527 17.3969 9.72965 17.4374C9.81402 17.4778 9.90641 17.4989 10 17.4989C10.0936 17.4989 10.186 17.4778 10.2704 17.4374C10.3547 17.3969 10.4289 17.338 10.4875 17.265C11.2788 16.2775 12.755 15.9912 14.515 16.1687C16.2375 16.3425 18.015 16.9437 19.1163 17.4437C19.2114 17.487 19.316 17.5057 19.4203 17.4982C19.5246 17.4906 19.6253 17.457 19.7132 17.4004C19.8012 17.3438 19.8735 17.266 19.9236 17.1742C19.9737 17.0824 20 16.9795 20 16.875V3.12497C20 3.00502 19.9654 2.88761 19.9005 2.78676C19.8355 2.68591 19.7429 2.60588 19.6337 2.55622C18.4438 2.01497 16.5338 1.36622 14.6413 1.17497C13.0163 1.01122 11.2312 1.16997 10 2.22872Z" fill="#FEFEFE"/>
</g>
<defs>
<clipPath id="clip0_2_308">
<rect width="20" height="20" fill="white"/>
</clipPath>
</defs>
</svg>
