<svg width="18" height="16" viewBox="0 0 18 16" fill="none" xmlns="http://www.w3.org/2000/svg">
<path fill-rule="evenodd" clip-rule="evenodd" d="M1.75777 4.646C1.80737 4.59944 1.86629 4.56249 1.93116 4.53729C1.99603 4.51208 2.06557 4.49911 2.1358 4.49911C2.20604 4.49911 2.27558 4.51208 2.34045 4.53729C2.40532 4.56249 2.46424 4.59944 2.51384 4.646L8.54321 10.293L14.5726 4.646C14.6222 4.59951 14.6812 4.56264 14.746 4.53748C14.8109 4.51232 14.8804 4.49937 14.9506 4.49937C15.0208 4.49937 15.0903 4.51232 15.1552 4.53748C15.2201 4.56264 15.279 4.59951 15.3287 4.646C15.3783 4.69249 15.4177 4.74768 15.4445 4.80842C15.4714 4.86916 15.4852 4.93426 15.4852 5C15.4852 5.06574 15.4714 5.13085 15.4445 5.19158C15.4177 5.25232 15.3783 5.30751 15.3287 5.354L8.92125 11.354C8.87165 11.4006 8.81273 11.4375 8.74786 11.4627C8.68299 11.4879 8.61344 11.5009 8.54321 11.5009C8.47298 11.5009 8.40344 11.4879 8.33857 11.4627C8.2737 11.4375 8.21477 11.4006 8.16517 11.354L1.75777 5.354C1.70804 5.30756 1.66859 5.25238 1.64167 5.19163C1.61475 5.13089 1.6009 5.06577 1.6009 5C1.6009 4.93423 1.61475 4.86911 1.64167 4.80837C1.66859 4.74762 1.70804 4.69245 1.75777 4.646Z" fill="#FEFEFE"/>
</svg>
