<svg width="72" height="42" viewBox="0 0 72 42" fill="none" xmlns="http://www.w3.org/2000/svg">
<path d="M7.06 14.6C6.04667 14.6 5.10667 14.42 4.24 14.06C3.38667 13.6867 2.64 13.1733 2 12.52C1.36 11.8533 0.866667 11.0867 0.52 10.22C0.173333 9.34 0 8.4 0 7.4C0 6.4 0.173333 5.46667 0.52 4.6C0.866667 3.72 1.36 2.95333 2 2.3C2.64 1.64667 3.38667 1.13333 4.24 0.76C5.10667 0.386666 6.04667 0.2 7.06 0.2C8.19333 0.2 9.17333 0.386666 10 0.76C10.8267 1.13333 11.56 1.64 12.2 2.28L10.64 3.84C10.2267 3.38667 9.72 3.03333 9.12 2.78C8.53333 2.52667 7.84667 2.4 7.06 2.4C6.36667 2.4 5.73333 2.52 5.16 2.76C4.58667 3 4.08667 3.34667 3.66 3.8C3.24667 4.24 2.92667 4.76667 2.7 5.38C2.47333 5.99333 2.36 6.66667 2.36 7.4C2.36 8.13333 2.47333 8.80667 2.7 9.42C2.92667 10.0333 3.24667 10.5667 3.66 11.02C4.08667 11.46 4.58667 11.8 5.16 12.04C5.73333 12.28 6.36667 12.4 7.06 12.4C7.91333 12.4 8.63333 12.2733 9.22 12.02C9.82 11.7533 10.3267 11.3933 10.74 10.94L12.3 12.5C11.66 13.1533 10.9067 13.6667 10.04 14.04C9.17333 14.4133 8.18 14.6 7.06 14.6Z" fill="#ECA61D"/>
<path d="M18.1594 14.6C17.226 14.6 16.3794 14.38 15.6194 13.94C14.8594 13.4867 14.2527 12.88 13.7994 12.12C13.3594 11.36 13.1394 10.5133 13.1394 9.58C13.1394 8.64667 13.3594 7.80667 13.7994 7.06C14.2527 6.31333 14.8594 5.72 15.6194 5.28C16.3794 4.82667 17.226 4.6 18.1594 4.6C19.106 4.6 19.9594 4.82 20.7194 5.26C21.4794 5.7 22.0794 6.3 22.5194 7.06C22.9727 7.80667 23.1994 8.64667 23.1994 9.58C23.1994 10.5133 22.9727 11.36 22.5194 12.12C22.0794 12.88 21.4794 13.4867 20.7194 13.94C19.9594 14.38 19.106 14.6 18.1594 14.6ZM18.1594 12.48C18.706 12.48 19.186 12.36 19.5994 12.12C20.026 11.8667 20.3527 11.52 20.5794 11.08C20.8194 10.64 20.9394 10.14 20.9394 9.58C20.9394 9.02 20.8194 8.52667 20.5794 8.1C20.3394 7.67333 20.0127 7.34 19.5994 7.1C19.186 6.84667 18.706 6.72 18.1594 6.72C17.626 6.72 17.146 6.84667 16.7194 7.1C16.306 7.34 15.9794 7.67333 15.7394 8.1C15.5127 8.52667 15.3994 9.02 15.3994 9.58C15.3994 10.14 15.5127 10.64 15.7394 11.08C15.9794 11.52 16.306 11.8667 16.7194 12.12C17.146 12.36 17.626 12.48 18.1594 12.48Z" fill="#ECA61D"/>
<path d="M31.6089 14.4V8.86C31.6089 8.22 31.4022 7.69333 30.9889 7.28C30.5889 6.86667 30.0689 6.66 29.4289 6.66C29.0022 6.66 28.6222 6.75333 28.2889 6.94C27.9556 7.12667 27.6956 7.38667 27.5089 7.72C27.3222 8.05333 27.2289 8.43333 27.2289 8.86L26.3689 8.38C26.3689 7.64667 26.5289 7 26.8489 6.44C27.1689 5.86667 27.6089 5.42 28.1689 5.1C28.7422 4.76667 29.3822 4.6 30.0889 4.6C30.8089 4.6 31.4489 4.78667 32.0089 5.16C32.5689 5.52 33.0089 5.99333 33.3289 6.58C33.6489 7.15333 33.8089 7.75333 33.8089 8.38V14.4H31.6089ZM25.0289 14.4V4.8H27.2289V14.4H25.0289Z" fill="#ECA61D"/>
<path d="M39.1845 14.6C38.6512 14.6 38.1379 14.5333 37.6445 14.4C37.1512 14.2533 36.6979 14.0533 36.2845 13.8C35.8712 13.5333 35.5112 13.2133 35.2045 12.84L36.6045 11.44C36.9379 11.8267 37.3179 12.12 37.7445 12.32C38.1845 12.5067 38.6779 12.6 39.2245 12.6C39.7179 12.6 40.0912 12.5267 40.3445 12.38C40.5979 12.2333 40.7245 12.02 40.7245 11.74C40.7245 11.4467 40.6045 11.22 40.3645 11.06C40.1245 10.9 39.8112 10.7667 39.4245 10.66C39.0512 10.54 38.6512 10.42 38.2245 10.3C37.8112 10.18 37.4112 10.02 37.0245 9.82C36.6512 9.60667 36.3445 9.32 36.1045 8.96C35.8645 8.6 35.7445 8.13333 35.7445 7.56C35.7445 6.94667 35.8845 6.42 36.1645 5.98C36.4579 5.54 36.8645 5.2 37.3845 4.96C37.9179 4.72 38.5512 4.6 39.2845 4.6C40.0579 4.6 40.7379 4.74 41.3245 5.02C41.9245 5.28667 42.4245 5.69333 42.8245 6.24L41.4245 7.64C41.1445 7.29333 40.8245 7.03333 40.4645 6.86C40.1045 6.68667 39.6912 6.6 39.2245 6.6C38.7845 6.6 38.4445 6.66667 38.2045 6.8C37.9645 6.93333 37.8445 7.12667 37.8445 7.38C37.8445 7.64667 37.9645 7.85333 38.2045 8C38.4445 8.14667 38.7512 8.27333 39.1245 8.38C39.5112 8.48667 39.9112 8.60667 40.3245 8.74C40.7512 8.86 41.1512 9.03333 41.5245 9.26C41.9112 9.47333 42.2245 9.76667 42.4645 10.14C42.7045 10.5 42.8245 10.9733 42.8245 11.56C42.8245 12.4933 42.4979 13.2333 41.8445 13.78C41.1912 14.3267 40.3045 14.6 39.1845 14.6Z" fill="#ECA61D"/>
<path d="M49.0983 14.6C48.1383 14.6 47.2716 14.3867 46.4983 13.96C45.7383 13.52 45.1316 12.92 44.6783 12.16C44.2383 11.4 44.0183 10.5467 44.0183 9.6C44.0183 8.65333 44.2383 7.80667 44.6783 7.06C45.1183 6.3 45.7116 5.7 46.4583 5.26C47.2183 4.82 48.0583 4.6 48.9783 4.6C49.8716 4.6 50.6583 4.80667 51.3383 5.22C52.0316 5.63333 52.5716 6.2 52.9583 6.92C53.3583 7.64 53.5583 8.46 53.5583 9.38C53.5583 9.54 53.5449 9.70667 53.5183 9.88C53.5049 10.04 53.4783 10.22 53.4383 10.42H45.5583V8.62H52.2983L51.4783 9.34C51.4516 8.75333 51.3383 8.26 51.1383 7.86C50.9383 7.46 50.6516 7.15333 50.2783 6.94C49.9183 6.72667 49.4716 6.62 48.9383 6.62C48.3783 6.62 47.8916 6.74 47.4783 6.98C47.0649 7.22 46.7449 7.56 46.5183 8C46.2916 8.42667 46.1783 8.94 46.1783 9.54C46.1783 10.14 46.2983 10.6667 46.5383 11.12C46.7783 11.5733 47.1183 11.9267 47.5583 12.18C47.9983 12.42 48.5049 12.54 49.0783 12.54C49.5716 12.54 50.0249 12.4533 50.4383 12.28C50.8649 12.1067 51.2249 11.8533 51.5183 11.52L52.9183 12.94C52.4516 13.4867 51.8849 13.9 51.2183 14.18C50.5516 14.46 49.8449 14.6 49.0983 14.6Z" fill="#ECA61D"/>
<path d="M55.3419 14.4V4.8H57.5419V14.4H55.3419ZM56.4419 3.04C56.0685 3.04 55.7552 2.91333 55.5019 2.66C55.2619 2.40667 55.1419 2.09333 55.1419 1.72C55.1419 1.34667 55.2619 1.03333 55.5019 0.779999C55.7552 0.526666 56.0685 0.4 56.4419 0.4C56.8285 0.4 57.1419 0.526666 57.3819 0.779999C57.6219 1.03333 57.7419 1.34667 57.7419 1.72C57.7419 2.09333 57.6219 2.40667 57.3819 2.66C57.1419 2.91333 56.8285 3.04 56.4419 3.04Z" fill="#ECA61D"/>
<path d="M60.0094 14.4V0H62.2094V14.4H60.0094Z" fill="#ECA61D"/>
<path d="M67.7978 14.6C67.2645 14.6 66.7511 14.5333 66.2578 14.4C65.7645 14.2533 65.3111 14.0533 64.8978 13.8C64.4845 13.5333 64.1245 13.2133 63.8178 12.84L65.2178 11.44C65.5511 11.8267 65.9311 12.12 66.3578 12.32C66.7978 12.5067 67.2911 12.6 67.8378 12.6C68.3311 12.6 68.7045 12.5267 68.9578 12.38C69.2111 12.2333 69.3378 12.02 69.3378 11.74C69.3378 11.4467 69.2178 11.22 68.9778 11.06C68.7378 10.9 68.4245 10.7667 68.0378 10.66C67.6645 10.54 67.2645 10.42 66.8378 10.3C66.4245 10.18 66.0245 10.02 65.6378 9.82C65.2645 9.60667 64.9578 9.32 64.7178 8.96C64.4778 8.6 64.3578 8.13333 64.3578 7.56C64.3578 6.94667 64.4978 6.42 64.7778 5.98C65.0711 5.54 65.4778 5.2 65.9978 4.96C66.5311 4.72 67.1645 4.6 67.8978 4.6C68.6711 4.6 69.3511 4.74 69.9378 5.02C70.5378 5.28667 71.0378 5.69333 71.4378 6.24L70.0378 7.64C69.7578 7.29333 69.4378 7.03333 69.0778 6.86C68.7178 6.68667 68.3045 6.6 67.8378 6.6C67.3978 6.6 67.0578 6.66667 66.8178 6.8C66.5778 6.93333 66.4578 7.12667 66.4578 7.38C66.4578 7.64667 66.5778 7.85333 66.8178 8C67.0578 8.14667 67.3645 8.27333 67.7378 8.38C68.1245 8.48667 68.5245 8.60667 68.9378 8.74C69.3645 8.86 69.7645 9.03333 70.1378 9.26C70.5245 9.47333 70.8378 9.76667 71.0778 10.14C71.3178 10.5 71.4378 10.9733 71.4378 11.56C71.4378 12.4933 71.1111 13.2333 70.4578 13.78C69.8045 14.3267 68.9178 14.6 67.7978 14.6Z" fill="#ECA61D"/>
<path d="M7.58 36.12C6.5 36.12 5.5 35.94 4.58 35.58C3.66 35.2067 2.85334 34.6933 2.16 34.04C1.48 33.3733 0.946672 32.5933 0.560005 31.7C0.186672 30.8067 0 29.84 0 28.8C0 27.7467 0.186672 26.78 0.560005 25.9C0.946672 25.0067 1.48 24.2333 2.16 23.58C2.85334 22.9267 3.65334 22.4133 4.56001 22.04C5.48001 21.6667 6.47333 21.48 7.54 21.48C8.66 21.48 9.66667 21.66 10.56 22.02C11.4533 22.3667 12.24 22.8533 12.92 23.48L10.52 25.88C10.1867 25.5067 9.77333 25.2133 9.28 25C8.78666 24.7867 8.20667 24.68 7.54 24.68C6.96667 24.68 6.44 24.7733 5.96 24.96C5.49333 25.1467 5.08667 25.4267 4.74001 25.8C4.39334 26.16 4.12001 26.5933 3.92001 27.1C3.73334 27.6067 3.64 28.1733 3.64 28.8C3.64 29.4267 3.73334 29.9933 3.92001 30.5C4.12001 31.0067 4.39334 31.4467 4.74001 31.82C5.08667 32.18 5.49333 32.46 5.96 32.66C6.44 32.8467 6.96667 32.94 7.54 32.94C8.20667 32.94 8.79334 32.84 9.3 32.64C9.80667 32.4267 10.24 32.1267 10.6 31.74L13 34.14C12.3067 34.7667 11.52 35.2533 10.64 35.6C9.77333 35.9467 8.75334 36.12 7.58 36.12Z" fill="#ECA61D"/>
<path d="M14.2877 35.9V26.12H17.7877V35.9H14.2877ZM16.0277 24.98C15.5077 24.98 15.0743 24.8067 14.7277 24.46C14.381 24.1 14.2077 23.6533 14.2077 23.12C14.2077 22.6 14.381 22.16 14.7277 21.8C15.0743 21.44 15.5077 21.26 16.0277 21.26C16.5743 21.26 17.0143 21.44 17.3477 21.8C17.6943 22.16 17.8677 22.6 17.8677 23.12C17.8677 23.6533 17.6943 24.1 17.3477 24.46C17.0143 24.8067 16.5743 24.98 16.0277 24.98Z" fill="#ECA61D"/>
<path d="M26.1555 35.9V30.38C26.1555 29.9267 26.0221 29.5733 25.7555 29.32C25.4888 29.0533 25.1488 28.92 24.7355 28.92C24.4555 28.92 24.2021 28.98 23.9755 29.1C23.7621 29.22 23.5955 29.3867 23.4755 29.6C23.3555 29.8133 23.2955 30.0733 23.2955 30.38L21.9355 29.74C21.9355 28.9533 22.1088 28.28 22.4555 27.72C22.8021 27.1467 23.2755 26.7067 23.8755 26.4C24.4888 26.08 25.1821 25.92 25.9555 25.92C26.6621 25.92 27.2888 26.0867 27.8355 26.42C28.3955 26.74 28.8355 27.1733 29.1555 27.72C29.4755 28.2667 29.6355 28.8867 29.6355 29.58V35.9H26.1555ZM19.8155 35.9V26.12H23.2955V35.9H19.8155Z" fill="#ECA61D"/>
<path d="M36.4156 36.12C35.3223 36.12 34.3556 35.9067 33.5156 35.48C32.6756 35.04 32.0156 34.4333 31.5356 33.66C31.0556 32.8867 30.8156 32 30.8156 31C30.8156 30.0133 31.049 29.14 31.5156 28.38C31.9823 27.6067 32.6156 27 33.4156 26.56C34.229 26.1067 35.1423 25.88 36.1556 25.88C37.1423 25.88 38.0156 26.0933 38.7756 26.52C39.549 26.9333 40.149 27.5133 40.5756 28.26C41.0156 28.9933 41.2356 29.8333 41.2356 30.78C41.2356 30.98 41.2223 31.1867 41.1956 31.4C41.1823 31.6 41.1423 31.8333 41.0756 32.1L32.4556 32.14V29.9L39.6956 29.84L38.1356 30.82C38.1223 30.2733 38.0423 29.8267 37.8956 29.48C37.749 29.12 37.5356 28.8467 37.2556 28.66C36.9756 28.4733 36.6223 28.38 36.1956 28.38C35.7556 28.38 35.3756 28.4867 35.0556 28.7C34.7356 28.9133 34.489 29.2133 34.3156 29.6C34.1423 29.9867 34.0556 30.4533 34.0556 31C34.0556 31.56 34.149 32.04 34.3356 32.44C34.5223 32.8267 34.789 33.12 35.1356 33.32C35.4823 33.52 35.909 33.62 36.4156 33.62C36.8956 33.62 37.3156 33.54 37.6756 33.38C38.049 33.22 38.3823 32.9733 38.6756 32.64L40.4956 34.46C40.0156 35.0067 39.429 35.42 38.7356 35.7C38.0556 35.98 37.2823 36.12 36.4156 36.12ZM34.5956 25.18L33.5956 23.46L37.0956 20.62L38.7556 23.34L34.5956 25.18Z" fill="#ECA61D"/>
<g clip-path="url(#clip0_1_40)">
<path d="M53.3821 23.8014C53.8024 24.7028 53.8475 25.7342 53.5073 26.6688C53.1672 27.6034 52.4697 28.3646 51.5683 28.7849C50.6669 29.2052 49.6355 29.2502 48.7009 28.9101C47.7663 28.5699 47.0051 27.8724 46.5848 26.971C46.1645 26.0697 46.1195 25.0382 46.4596 24.1036C46.7998 23.1691 47.4973 22.4079 48.3987 21.9876C49.3 21.5672 50.3315 21.5222 51.266 21.8624C52.2006 22.2025 52.9618 22.9 53.3821 23.8014Z" fill="#AC2020"/>
<path d="M58.3656 25.6152C57.4642 26.0356 56.4328 26.0806 55.4982 25.7404C54.5636 25.4003 53.8024 24.7028 53.3821 23.8014C52.9618 22.9 52.9168 21.8686 53.2569 20.934C53.5971 19.9994 54.2946 19.2382 55.196 18.8179C56.0973 18.3976 57.1288 18.3526 58.0634 18.6927C58.9979 19.0329 59.7591 19.7304 60.1794 20.6318C60.5997 21.5331 60.6448 22.5646 60.3046 23.4992C59.9645 24.4337 59.267 25.1949 58.3656 25.6152Z" fill="#AC2020"/>
<path d="M58.3656 25.6152L58.932 25.3511C59.4815 25.0948 60.1055 25.0469 60.6877 25.2164C61.2699 25.3859 61.7706 25.7612 62.0967 26.2725L64.8899 23.0639C65.0265 22.9067 65.2003 22.786 65.3954 22.713C65.5905 22.64 65.8007 22.6169 66.007 22.6458C66.2133 22.6747 66.4091 22.7548 66.5766 22.8786C66.7441 23.0024 66.878 23.1662 66.9662 23.355L70.9081 31.8085C70.9959 31.9973 71.0352 32.2049 71.0224 32.4127C71.0096 32.6205 70.9451 32.8217 70.8348 32.9983C70.7245 33.1748 70.5719 33.321 70.3907 33.4235C70.2096 33.5261 70.0057 33.5818 69.7976 33.5856L65.5431 33.6634C65.7252 34.2418 65.6908 34.8667 65.4465 35.4216C65.2021 35.9765 64.7643 36.4237 64.2148 36.6799L55.7181 40.642C55.1172 40.9222 54.4296 40.9522 53.8065 40.7255C53.1835 40.4987 52.676 40.0337 52.3958 39.4328L49.2262 32.6355C48.9459 32.0345 48.9159 31.3469 49.1427 30.7239C49.3695 30.1008 49.8345 29.5934 50.4354 29.3131L58.3656 25.6152Z" fill="#AC2020"/>
</g>
<defs>
<clipPath id="clip0_1_40">
<rect width="20" height="20" fill="white" transform="translate(45 23.5724) rotate(-25)"/>
</clipPath>
</defs>
</svg>
