<svg width="249" height="249" viewBox="0 0 249 249" fill="none" xmlns="http://www.w3.org/2000/svg">
<g clip-path="url(#clip0_2_271)">
<path d="M138.797 97.294C139.267 95.7046 139.088 93.9934 138.297 92.5367C137.506 91.0799 136.168 89.9971 134.579 89.5263C132.99 89.0555 131.279 89.2353 129.822 90.0263C128.365 90.8172 127.282 92.1545 126.811 93.7438L116.516 128.501L80.5601 117.85C78.9707 117.38 77.2595 117.56 75.8028 118.35C74.346 119.141 73.2632 120.479 72.7924 122.068C72.3216 123.657 72.5014 125.369 73.2924 126.825C74.0833 128.282 75.4206 129.365 77.0099 129.836L118.958 142.261C120.548 142.732 122.259 142.552 123.716 141.761C125.172 140.97 126.255 139.633 126.726 138.044L138.797 97.294Z" fill="#FEFEFE" fill-opacity="0.29"/>
<path d="M131.157 35.0615C131.628 33.4722 132.711 32.1349 134.167 31.344C135.624 30.5531 137.335 30.3732 138.925 30.844L162.895 37.9444C164.485 38.4151 165.822 39.498 166.613 40.9547C167.404 42.4115 167.584 44.1227 167.113 45.7121C166.642 47.3014 165.559 48.6387 164.102 49.4296C162.646 50.2205 160.934 50.4004 159.345 49.9296L157.321 56.7612C172.926 63.9386 185.642 75.3189 194.454 89.1409C194.517 89.1024 194.58 89.0646 194.644 89.0277L200.144 86.0417L197.154 80.5541C196.362 79.0971 196.181 77.385 196.651 75.7945C197.12 74.2039 198.203 72.8652 199.66 72.0728C201.117 71.2804 202.829 71.0992 204.42 71.5691C206.01 72.039 207.349 73.1216 208.141 74.5785L220.065 96.5576C220.474 97.28 220.734 98.0765 220.832 98.9006C220.929 99.7248 220.862 100.56 220.633 101.358C220.404 102.156 220.019 102.9 219.499 103.547C218.98 104.194 218.337 104.731 217.607 105.127C216.878 105.523 216.077 105.77 215.251 105.853C214.426 105.937 213.592 105.854 212.798 105.612C212.004 105.369 211.267 104.971 210.629 104.44C209.991 103.91 209.465 103.257 209.081 102.521L206.107 97.0252L200.608 100.011C200.542 100.045 200.476 100.077 200.409 100.109C208.44 117.811 210.347 137.682 205.831 156.588C201.314 175.494 190.631 192.358 175.467 204.519C160.303 216.68 141.521 223.445 122.086 223.747C102.65 224.049 83.6672 217.871 68.1324 206.188C52.5976 194.504 41.3953 177.981 36.2934 159.224C31.1914 140.468 32.4802 120.546 39.9564 102.604C47.4326 84.6609 60.6705 69.7184 77.5812 60.134C94.492 50.5495 114.113 46.8689 133.347 49.6728L135.375 42.8292C133.785 42.3584 132.448 41.2756 131.657 39.8188C130.866 38.3621 130.686 36.6508 131.157 35.0615ZM142.035 64.3573C132.591 61.5608 122.689 60.6517 112.894 61.6821C103.098 62.7124 93.6022 65.6619 84.9469 70.3622C67.467 79.855 54.4739 95.9028 48.8261 114.975C43.1783 134.048 45.3383 154.583 54.831 172.063C64.3238 189.543 80.3716 202.536 99.4442 208.184C118.517 213.832 139.052 211.672 156.532 202.179C174.012 192.686 187.005 176.638 192.653 157.566C198.3 138.493 196.14 117.958 186.648 100.478C177.155 82.9982 161.107 70.0051 142.035 64.3573Z" fill="#FEFEFE" fill-opacity="0.29"/>
</g>
<defs>
<clipPath id="clip0_2_271">
<rect width="200" height="200" fill="white" transform="translate(56.8031) rotate(16.5)"/>
</clipPath>
</defs>
</svg>
