<svg width="310" height="128" viewBox="0 0 310 128" fill="none" xmlns="http://www.w3.org/2000/svg">
<path d="M0.99 109.69C0.99 107.97 1.34 106.47 2.04 105.19C2.74 103.89 3.71 102.89 4.95 102.19C6.19 101.47 7.61 101.11 9.21 101.11C11.27 101.11 12.97 101.63 14.31 102.67C15.67 103.69 16.58 105.13 17.04 106.99H12.51C12.27 106.27 11.86 105.71 11.28 105.31C10.72 104.89 10.02 104.68 9.18 104.68C7.98 104.68 7.03 105.12 6.33 106C5.63 106.86 5.28 108.09 5.28 109.69C5.28 111.27 5.63 112.5 6.33 113.38C7.03 114.24 7.98 114.67 9.18 114.67C10.88 114.67 11.99 113.91 12.51 112.39H17.04C16.58 114.19 15.67 115.62 14.31 116.68C12.95 117.74 11.25 118.27 9.21 118.27C7.61 118.27 6.19 117.92 4.95 117.22C3.71 116.5 2.74 115.5 2.04 114.22C1.34 112.92 0.99 111.41 0.99 109.69ZM19.2869 109.63C19.2869 107.95 19.6169 106.46 20.2769 105.16C20.9569 103.86 21.8669 102.86 23.0069 102.16C24.1669 101.46 25.4569 101.11 26.8769 101.11C28.1169 101.11 29.1969 101.36 30.1169 101.86C31.0569 102.36 31.8069 102.99 32.3669 103.75V101.38H36.5969V118H32.3669V115.57C31.8269 116.35 31.0769 117 30.1169 117.52C29.1769 118.02 28.0869 118.27 26.8469 118.27C25.4469 118.27 24.1669 117.91 23.0069 117.19C21.8669 116.47 20.9569 115.46 20.2769 114.16C19.6169 112.84 19.2869 111.33 19.2869 109.63ZM32.3669 109.69C32.3669 108.67 32.1669 107.8 31.7669 107.08C31.3669 106.34 30.8269 105.78 30.1469 105.4C29.4669 105 28.7369 104.8 27.9569 104.8C27.1769 104.8 26.4569 104.99 25.7969 105.37C25.1369 105.75 24.5969 106.31 24.1769 107.05C23.7769 107.77 23.5769 108.63 23.5769 109.63C23.5769 110.63 23.7769 111.51 24.1769 112.27C24.5969 113.01 25.1369 113.58 25.7969 113.98C26.4769 114.38 27.1969 114.58 27.9569 114.58C28.7369 114.58 29.4669 114.39 30.1469 114.01C30.8269 113.61 31.3669 113.05 31.7669 112.33C32.1669 111.59 32.3669 110.71 32.3669 109.69ZM45.8389 104.83V112.87C45.8389 113.43 45.9689 113.84 46.2289 114.1C46.5089 114.34 46.9689 114.46 47.6089 114.46H49.5589V118H46.9189C43.3789 118 41.6089 116.28 41.6089 112.84V104.83H39.6289V101.38H41.6089V97.27H45.8389V101.38H49.5589V104.83H45.8389ZM51.7498 109.63C51.7498 107.95 52.0798 106.46 52.7398 105.16C53.4198 103.86 54.3298 102.86 55.4698 102.16C56.6298 101.46 57.9198 101.11 59.3398 101.11C60.5798 101.11 61.6598 101.36 62.5798 101.86C63.5198 102.36 64.2698 102.99 64.8298 103.75V101.38H69.0598V118H64.8298V115.57C64.2898 116.35 63.5398 117 62.5798 117.52C61.6398 118.02 60.5498 118.27 59.3098 118.27C57.9098 118.27 56.6298 117.91 55.4698 117.19C54.3298 116.47 53.4198 115.46 52.7398 114.16C52.0798 112.84 51.7498 111.33 51.7498 109.63ZM64.8298 109.69C64.8298 108.67 64.6298 107.8 64.2298 107.08C63.8298 106.34 63.2898 105.78 62.6098 105.4C61.9298 105 61.1998 104.8 60.4198 104.8C59.6398 104.8 58.9198 104.99 58.2598 105.37C57.5998 105.75 57.0598 106.31 56.6398 107.05C56.2398 107.77 56.0398 108.63 56.0398 109.63C56.0398 110.63 56.2398 111.51 56.6398 112.27C57.0598 113.01 57.5998 113.58 58.2598 113.98C58.9398 114.38 59.6598 114.58 60.4198 114.58C61.1998 114.58 61.9298 114.39 62.6098 114.01C63.2898 113.61 63.8298 113.05 64.2298 112.33C64.6298 111.59 64.8298 110.71 64.8298 109.69ZM77.6118 95.8V118H73.4118V95.8H77.6118ZM89.3914 118.27C87.7914 118.27 86.3514 117.92 85.0714 117.22C83.7914 116.5 82.7814 115.49 82.0414 114.19C81.3214 112.89 80.9614 111.39 80.9614 109.69C80.9614 107.99 81.3314 106.49 82.0714 105.19C82.8314 103.89 83.8614 102.89 85.1614 102.19C86.4614 101.47 87.9114 101.11 89.5114 101.11C91.1114 101.11 92.5614 101.47 93.8614 102.19C95.1614 102.89 96.1814 103.89 96.9214 105.19C97.6814 106.49 98.0614 107.99 98.0614 109.69C98.0614 111.39 97.6714 112.89 96.8914 114.19C96.1314 115.49 95.0914 116.5 93.7714 117.22C92.4714 117.92 91.0114 118.27 89.3914 118.27ZM89.3914 114.61C90.1514 114.61 90.8614 114.43 91.5214 114.07C92.2014 113.69 92.7414 113.13 93.1414 112.39C93.5414 111.65 93.7414 110.75 93.7414 109.69C93.7414 108.11 93.3214 106.9 92.4814 106.06C91.6614 105.2 90.6514 104.77 89.4514 104.77C88.2514 104.77 87.2414 105.2 86.4214 106.06C85.6214 106.9 85.2214 108.11 85.2214 109.69C85.2214 111.27 85.6114 112.49 86.3914 113.35C87.1914 114.19 88.1914 114.61 89.3914 114.61ZM107.902 101.11C109.142 101.11 110.232 101.36 111.172 101.86C112.112 102.34 112.852 102.97 113.392 103.75V101.38H117.622V118.12C117.622 119.66 117.312 121.03 116.692 122.23C116.072 123.45 115.142 124.41 113.902 125.11C112.662 125.83 111.162 126.19 109.402 126.19C107.042 126.19 105.102 125.64 103.582 124.54C102.082 123.44 101.232 121.94 101.032 120.04H105.202C105.422 120.8 105.892 121.4 106.612 121.84C107.352 122.3 108.242 122.53 109.282 122.53C110.502 122.53 111.492 122.16 112.252 121.42C113.012 120.7 113.392 119.6 113.392 118.12V115.54C112.852 116.32 112.102 116.97 111.142 117.49C110.202 118.01 109.122 118.27 107.902 118.27C106.502 118.27 105.222 117.91 104.062 117.19C102.902 116.47 101.982 115.46 101.302 114.16C100.642 112.84 100.312 111.33 100.312 109.63C100.312 107.95 100.642 106.46 101.302 105.16C101.982 103.86 102.892 102.86 104.032 102.16C105.192 101.46 106.482 101.11 107.902 101.11ZM113.392 109.69C113.392 108.67 113.192 107.8 112.792 107.08C112.392 106.34 111.852 105.78 111.172 105.4C110.492 105 109.762 104.8 108.982 104.8C108.202 104.8 107.482 104.99 106.822 105.37C106.162 105.75 105.622 106.31 105.202 107.05C104.802 107.77 104.602 108.63 104.602 109.63C104.602 110.63 104.802 111.51 105.202 112.27C105.622 113.01 106.162 113.58 106.822 113.98C107.502 114.38 108.222 114.58 108.982 114.58C109.762 114.58 110.492 114.39 111.172 114.01C111.852 113.61 112.392 113.05 112.792 112.33C113.192 111.59 113.392 110.71 113.392 109.69ZM137.664 101.38V118H133.434V115.9C132.894 116.62 132.184 117.19 131.304 117.61C130.444 118.01 129.504 118.21 128.484 118.21C127.184 118.21 126.034 117.94 125.034 117.4C124.034 116.84 123.244 116.03 122.664 114.97C122.104 113.89 121.824 112.61 121.824 111.13V101.38H126.024V110.53C126.024 111.85 126.354 112.87 127.014 113.59C127.674 114.29 128.574 114.64 129.714 114.64C130.874 114.64 131.784 114.29 132.444 113.59C133.104 112.87 133.434 111.85 133.434 110.53V101.38H137.664ZM157.508 109.33C157.508 109.93 157.468 110.47 157.388 110.95H145.238C145.338 112.15 145.758 113.09 146.498 113.77C147.238 114.45 148.148 114.79 149.228 114.79C150.788 114.79 151.898 114.12 152.558 112.78H157.088C156.608 114.38 155.688 115.7 154.328 116.74C152.968 117.76 151.298 118.27 149.318 118.27C147.718 118.27 146.278 117.92 144.998 117.22C143.738 116.5 142.748 115.49 142.028 114.19C141.328 112.89 140.978 111.39 140.978 109.69C140.978 107.97 141.328 106.46 142.028 105.16C142.728 103.86 143.708 102.86 144.968 102.16C146.228 101.46 147.678 101.11 149.318 101.11C150.898 101.11 152.308 101.45 153.548 102.13C154.808 102.81 155.778 103.78 156.458 105.04C157.158 106.28 157.508 107.71 157.508 109.33ZM153.158 108.13C153.138 107.05 152.748 106.19 151.988 105.55C151.228 104.89 150.298 104.56 149.198 104.56C148.158 104.56 147.278 104.88 146.558 105.52C145.858 106.14 145.428 107.01 145.268 108.13H153.158ZM167.142 109.63C167.142 107.95 167.472 106.46 168.132 105.16C168.812 103.86 169.732 102.86 170.892 102.16C172.052 101.46 173.342 101.11 174.762 101.11C175.842 101.11 176.872 101.35 177.852 101.83C178.832 102.29 179.612 102.91 180.192 103.69V95.8H184.452V118H180.192V115.54C179.672 116.36 178.942 117.02 178.002 117.52C177.062 118.02 175.972 118.27 174.732 118.27C173.332 118.27 172.052 117.91 170.892 117.19C169.732 116.47 168.812 115.46 168.132 114.16C167.472 112.84 167.142 111.33 167.142 109.63ZM180.222 109.69C180.222 108.67 180.022 107.8 179.622 107.08C179.222 106.34 178.682 105.78 178.002 105.4C177.322 105 176.592 104.8 175.812 104.8C175.032 104.8 174.312 104.99 173.652 105.37C172.992 105.75 172.452 106.31 172.032 107.05C171.632 107.77 171.432 108.63 171.432 109.63C171.432 110.63 171.632 111.51 172.032 112.27C172.452 113.01 172.992 113.58 173.652 113.98C174.332 114.38 175.052 114.58 175.812 114.58C176.592 114.58 177.322 114.39 178.002 114.01C178.682 113.61 179.222 113.05 179.622 112.33C180.022 111.59 180.222 110.71 180.222 109.69ZM204.254 109.33C204.254 109.93 204.214 110.47 204.134 110.95H191.984C192.084 112.15 192.504 113.09 193.244 113.77C193.984 114.45 194.894 114.79 195.974 114.79C197.534 114.79 198.644 114.12 199.304 112.78H203.834C203.354 114.38 202.434 115.7 201.074 116.74C199.714 117.76 198.044 118.27 196.064 118.27C194.464 118.27 193.024 117.92 191.744 117.22C190.484 116.5 189.494 115.49 188.774 114.19C188.074 112.89 187.724 111.39 187.724 109.69C187.724 107.97 188.074 106.46 188.774 105.16C189.474 103.86 190.454 102.86 191.714 102.16C192.974 101.46 194.424 101.11 196.064 101.11C197.644 101.11 199.054 101.45 200.294 102.13C201.554 102.81 202.524 103.78 203.204 105.04C203.904 106.28 204.254 107.71 204.254 109.33ZM199.904 108.13C199.884 107.05 199.494 106.19 198.734 105.55C197.974 104.89 197.044 104.56 195.944 104.56C194.904 104.56 194.024 104.88 193.304 105.52C192.604 106.14 192.174 107.01 192.014 108.13H199.904ZM213.93 118.27C212.57 118.27 211.35 118.03 210.27 117.55C209.19 117.05 208.33 116.38 207.69 115.54C207.07 114.7 206.73 113.77 206.67 112.75H210.9C210.98 113.39 211.29 113.92 211.83 114.34C212.39 114.76 213.08 114.97 213.9 114.97C214.7 114.97 215.32 114.81 215.76 114.49C216.22 114.17 216.45 113.76 216.45 113.26C216.45 112.72 216.17 112.32 215.61 112.06C215.07 111.78 214.2 111.48 213 111.16C211.76 110.86 210.74 110.55 209.94 110.23C209.16 109.91 208.48 109.42 207.9 108.76C207.34 108.1 207.06 107.21 207.06 106.09C207.06 105.17 207.32 104.33 207.84 103.57C208.38 102.81 209.14 102.21 210.12 101.77C211.12 101.33 212.29 101.11 213.63 101.11C215.61 101.11 217.19 101.61 218.37 102.61C219.55 103.59 220.2 104.92 220.32 106.6H216.3C216.24 105.94 215.96 105.42 215.46 105.04C214.98 104.64 214.33 104.44 213.51 104.44C212.75 104.44 212.16 104.58 211.74 104.86C211.34 105.14 211.14 105.53 211.14 106.03C211.14 106.59 211.42 107.02 211.98 107.32C212.54 107.6 213.41 107.89 214.59 108.19C215.79 108.49 216.78 108.8 217.56 109.12C218.34 109.44 219.01 109.94 219.57 110.62C220.15 111.28 220.45 112.16 220.47 113.26C220.47 114.22 220.2 115.08 219.66 115.84C219.14 116.6 218.38 117.2 217.38 117.64C216.4 118.06 215.25 118.27 213.93 118.27Z" fill="#FEFEFE"/>
<path d="M239.186 104.83H236.276V118H232.016V104.83H230.126V101.38H232.016V100.54C232.016 98.5 232.596 97 233.756 96.04C234.916 95.08 236.666 94.63 239.006 94.69V98.23C237.986 98.21 237.276 98.38 236.876 98.74C236.476 99.1 236.276 99.75 236.276 100.69V101.38H239.186V104.83ZM244.288 99.4C243.548 99.4 242.928 99.17 242.428 98.71C241.948 98.23 241.708 97.64 241.708 96.94C241.708 96.24 241.948 95.66 242.428 95.2C242.928 94.72 243.548 94.48 244.288 94.48C245.028 94.48 245.638 94.72 246.118 95.2C246.618 95.66 246.868 96.24 246.868 96.94C246.868 97.64 246.618 98.23 246.118 98.71C245.638 99.17 245.028 99.4 244.288 99.4ZM246.358 101.38V118H242.158V101.38H246.358ZM254.958 95.8V118H250.758V95.8H254.958ZM279.997 101.14C282.037 101.14 283.677 101.77 284.917 103.03C286.177 104.27 286.807 106.01 286.807 108.25V118H282.607V108.82C282.607 107.52 282.277 106.53 281.617 105.85C280.957 105.15 280.057 104.8 278.917 104.8C277.777 104.8 276.867 105.15 276.187 105.85C275.527 106.53 275.197 107.52 275.197 108.82V118H270.997V108.82C270.997 107.52 270.667 106.53 270.007 105.85C269.347 105.15 268.447 104.8 267.307 104.8C266.147 104.8 265.227 105.15 264.547 105.85C263.887 106.53 263.557 107.52 263.557 108.82V118H259.357V101.38H263.557V103.39C264.097 102.69 264.787 102.14 265.627 101.74C266.487 101.34 267.427 101.14 268.447 101.14C269.747 101.14 270.907 101.42 271.927 101.98C272.947 102.52 273.737 103.3 274.297 104.32C274.837 103.36 275.617 102.59 276.637 102.01C277.677 101.43 278.797 101.14 279.997 101.14ZM297.403 118.27C296.043 118.27 294.823 118.03 293.743 117.55C292.663 117.05 291.803 116.38 291.163 115.54C290.543 114.7 290.203 113.77 290.143 112.75H294.373C294.453 113.39 294.763 113.92 295.303 114.34C295.863 114.76 296.553 114.97 297.373 114.97C298.173 114.97 298.793 114.81 299.233 114.49C299.693 114.17 299.923 113.76 299.923 113.26C299.923 112.72 299.643 112.32 299.083 112.06C298.543 111.78 297.673 111.48 296.473 111.16C295.233 110.86 294.213 110.55 293.413 110.23C292.633 109.91 291.953 109.42 291.373 108.76C290.813 108.1 290.533 107.21 290.533 106.09C290.533 105.17 290.793 104.33 291.313 103.57C291.853 102.81 292.613 102.21 293.593 101.77C294.593 101.33 295.763 101.11 297.103 101.11C299.083 101.11 300.663 101.61 301.843 102.61C303.023 103.59 303.673 104.92 303.793 106.6H299.773C299.713 105.94 299.433 105.42 298.933 105.04C298.453 104.64 297.803 104.44 296.983 104.44C296.223 104.44 295.633 104.58 295.213 104.86C294.813 105.14 294.613 105.53 294.613 106.03C294.613 106.59 294.893 107.02 295.453 107.32C296.013 107.6 296.883 107.89 298.063 108.19C299.263 108.49 300.253 108.8 301.033 109.12C301.813 109.44 302.483 109.94 303.043 110.62C303.623 111.28 303.923 112.16 303.943 113.26C303.943 114.22 303.673 115.08 303.133 115.84C302.613 116.6 301.853 117.2 300.853 117.64C299.873 118.06 298.723 118.27 297.403 118.27Z" fill="#ECA61D"/>
<path d="M25.2 61H47.1V76H5.6V5.5H25.2V61ZM108.571 47.3C108.571 48.8333 108.471 50.3667 108.271 51.9H71.1711C71.3711 54.9667 72.2044 57.2667 73.6711 58.8C75.2044 60.2667 77.1378 61 79.4711 61C82.7378 61 85.0711 59.5333 86.4711 56.6H107.371C106.504 60.4667 104.804 63.9333 102.271 67C99.8044 70 96.6711 72.3667 92.8711 74.1C89.0711 75.8333 84.8711 76.7 80.2711 76.7C74.7378 76.7 69.8044 75.5333 65.4711 73.2C61.2044 70.8667 57.8378 67.5333 55.3711 63.2C52.9711 58.8667 51.7711 53.7667 51.7711 47.9C51.7711 42.0333 52.9711 36.9667 55.3711 32.7C57.7711 28.3667 61.1044 25.0333 65.3711 22.7C69.7044 20.3667 74.6711 19.2 80.2711 19.2C85.8044 19.2 90.7044 20.3333 94.9711 22.6C99.2378 24.8667 102.571 28.1333 104.971 32.4C107.371 36.6 108.571 41.5667 108.571 47.3ZM88.5711 42.4C88.5711 40 87.7711 38.1333 86.1711 36.8C84.5711 35.4 82.5711 34.7 80.1711 34.7C77.7711 34.7 75.8044 35.3667 74.2711 36.7C72.7378 37.9667 71.7378 39.8667 71.2711 42.4H88.5711Z" fill="#ECA61D"/>
<g clip-path="url(#clip0_15_777)">
<path d="M132.392 21.5883L167.033 41.5883C168.871 42.6492 170.212 44.3966 170.761 46.446C171.31 48.4954 171.022 50.6791 169.962 52.5166L163.962 62.9089C162.901 64.7463 161.153 66.0871 159.104 66.6363C157.054 67.1854 154.871 66.8979 153.033 65.8371L118.392 45.8371C116.555 44.7762 115.214 43.0288 114.665 40.9794C114.116 38.93 114.403 36.7463 115.464 34.9089L121.464 24.5166C122.525 22.6791 124.272 21.3383 126.322 20.7891C128.371 20.24 130.555 20.5275 132.392 21.5883ZM130.392 25.0525C129.474 24.522 128.382 24.3783 127.357 24.6528C126.332 24.9274 125.459 25.5978 124.928 26.5166L118.928 36.9089C118.398 37.8276 118.254 38.9194 118.529 39.9441C118.803 40.9689 119.474 41.8425 120.392 42.373L155.033 62.373C155.952 62.9034 157.044 63.0471 158.069 62.7726C159.093 62.498 159.967 61.8276 160.497 60.9089L166.497 50.5166C167.028 49.5978 167.172 48.506 166.897 47.4813C166.622 46.4566 165.952 45.5829 165.033 45.0525L130.392 25.0525ZM130.464 8.9281C130.729 8.46873 131.166 8.13353 131.679 7.99624C132.191 7.85896 132.737 7.93083 133.196 8.19604L178.229 34.196C178.689 34.4613 179.024 34.8981 179.161 35.4105C179.299 35.9228 179.227 36.4687 178.962 36.9281C178.696 37.3875 178.259 37.7227 177.747 37.8599C177.235 37.9972 176.689 37.9254 176.229 37.6601L131.196 11.6601C130.737 11.3949 130.402 10.9581 130.264 10.4457C130.127 9.93337 130.199 9.38746 130.464 8.9281Z" fill="#FEFEFE"/>
<path d="M111 51.5L154.229 75.7653C154.689 76.0305 155.024 76.4673 155.161 76.9797C155.299 77.492 155.227 78.0379 154.962 78.4973C154.696 78.9567 154.259 79.2919 153.747 79.4292C153.235 79.5665 152.689 79.4946 152.229 79.2294L109 54.5C109 54.5 109.5 54.5 110.5 54.5C111.5 54.5 111 51.5 111 51.5Z" fill="#FEFEFE"/>
</g>
<defs>
<clipPath id="clip0_15_777">
<rect width="64" height="64" fill="white" transform="translate(131) rotate(30)"/>
</clipPath>
</defs>
</svg>
